<?xml version="1.0" standalone="no"?>
<!DOCTYPE svg PUBLIC "-//W3C//DTD SVG 20010904//EN"
 "http://www.w3.org/TR/2001/REC-SVG-20010904/DTD/svg10.dtd">
<svg version="1.0" xmlns="http://www.w3.org/2000/svg"
 width="492.000000pt" height="284.000000pt" viewBox="0 0 492.000000 284.000000"
 preserveAspectRatio="xMidYMid meet">

<g transform="translate(0.000000,284.000000) scale(0.100000,-0.100000)"
fill="#000000" stroke="none">
<path d="M3030 1406 l0 -1336 589 0 c383 0 592 4 596 10 3 6 24 10 46 10 21 0
39 5 39 10 0 6 9 10 20 10 35 0 217 105 228 132 2 4 8 8 14 8 11 0 38 29 81
83 12 16 28 35 35 42 6 8 12 18 12 24 0 6 4 11 9 11 5 0 11 8 14 18 3 9 16 35
28 57 34 63 39 74 39 90 0 8 4 23 9 33 49 96 49 388 0 484 -5 10 -9 27 -9 38
0 11 -4 20 -10 20 -5 0 -10 7 -10 16 0 29 -88 151 -161 223 -40 39 -76 71 -80
71 -4 0 -14 6 -21 13 -19 17 -68 46 -100 60 -16 6 -28 15 -28 19 0 4 -7 8 -15
8 -35 0 -145 93 -145 122 0 10 -3 18 -8 18 -9 0 -32 63 -39 108 -3 18 -9 35
-14 38 -5 3 -9 20 -9 39 0 19 -4 37 -10 40 -5 3 -10 19 -10 36 0 16 -3 29 -7
29 -5 0 -16 21 -26 48 -34 85 -81 172 -99 180 -5 2 -8 10 -8 18 0 8 -4 14 -10
14 -5 0 -10 6 -10 14 0 16 -164 186 -180 186 -5 0 -10 4 -10 8 0 4 -12 15 -27
24 -16 9 -37 25 -48 35 -11 10 -40 29 -65 42 -25 13 -52 30 -61 37 -8 8 -23
14 -32 14 -9 0 -17 5 -17 10 0 6 -9 10 -19 10 -11 0 -23 5 -26 10 -3 6 -15 10
-26 10 -19 0 -26 2 -87 33 -19 9 -51 17 -73 17 -21 0 -39 4 -39 9 0 5 -37 12
-82 14 -46 2 -95 8 -110 12 l-28 7 0 -1336z"/>
<path d="M1490 1306 l0 -293 83 -6 c127 -10 180 -8 202 9 19 14 20 27 20 283
0 212 -3 271 -14 284 -11 14 -35 17 -152 17 l-139 0 0 -294z"/>
<path d="M850 1225 l0 -215 48 -1 c137 -3 157 6 166 74 8 68 8 188 0 266 -6
55 -10 62 -37 76 -19 9 -58 15 -104 15 l-73 0 0 -215z"/>
<path d="M370 1171 l0 -159 30 -7 c83 -18 130 28 138 135 6 90 -3 132 -35 164
-21 22 -35 26 -79 26 l-54 0 0 -159z"/>
<path d="M713 873 l-63 -4 0 -229 0 -230 80 0 c76 0 106 8 137 37 19 17 19
396 0 411 -17 14 -76 20 -154 15z"/>
<path d="M210 780 c0 -89 0 -90 24 -90 36 0 56 35 56 96 0 73 -6 84 -46 84
l-34 0 0 -90z"/>
<path d="M1180 685 l0 -185 45 0 c25 0 45 5 45 10 0 6 6 10 14 10 8 0 28 12
45 26 l31 26 0 116 c0 99 -3 122 -20 150 -19 31 -21 32 -90 32 l-70 0 0 -185z"/>
<path d="M1890 459 l0 -410 93 5 c111 6 224 20 255 31 12 4 30 24 40 44 15 32
17 71 17 336 0 343 -2 352 -72 385 -37 17 -64 20 -188 20 l-145 0 0 -411z"/>
<path d="M1240 285 l0 -125 25 0 c14 0 25 5 25 10 0 6 8 10 18 10 29 0 52 55
52 124 0 55 -3 64 -22 73 -21 10 -86 33 -94 33 -2 0 -4 -56 -4 -125z"/>
</g>
</svg>
