<?xml version="1.0" standalone="no"?>
<!DOCTYPE svg PUBLIC "-//W3C//DTD SVG 20010904//EN"
 "http://www.w3.org/TR/2001/REC-SVG-20010904/DTD/svg10.dtd">
<svg version="1.0" xmlns="http://www.w3.org/2000/svg"
 width="141.000000pt" height="40.000000pt" viewBox="0 0 141.000000 40.000000"
 preserveAspectRatio="xMidYMid meet">

<g transform="translate(0.000000,40.000000) scale(0.100000,-0.100000)"
fill="#000000" stroke="none">
<path d="M414 210 l-2 -50 34 0 c46 0 52 21 19 65 -37 48 -50 45 -51 -15z"/>
<path d="M529 254 c-3 -5 -4 -15 -3 -21 1 -7 2 -23 3 -35 2 -22 3 -22 11 -3 7
18 8 19 15 3 13 -32 25 -19 25 25 -1 36 -2 40 -13 25 -12 -15 -14 -15 -23 0
-6 9 -13 12 -15 6z"/>
<path d="M630 245 c0 -8 -6 -15 -14 -15 -8 0 -17 -4 -20 -9 -10 -16 5 -41 25
-41 15 0 19 7 19 40 0 22 -2 40 -5 40 -3 0 -5 -7 -5 -15z m0 -34 c0 -6 -4 -13
-10 -16 -5 -3 -10 1 -10 9 0 9 5 16 10 16 6 0 10 -4 10 -9z"/>
<path d="M897 253 c-6 -10 0 -63 7 -71 3 -3 6 13 6 36 0 41 -4 50 -13 35z"/>
<path d="M1080 245 c0 -8 -7 -15 -16 -15 -25 0 -13 -44 14 -48 20 -3 22 1 22
37 0 23 -4 41 -10 41 -5 0 -10 -7 -10 -15z m-3 -47 c-3 -8 -6 -5 -6 6 -1 11 2
17 5 13 3 -3 4 -12 1 -19z"/>
<path d="M660 205 c0 -18 5 -25 19 -25 20 0 31 17 24 38 -3 6 -13 12 -24 12
-14 0 -19 -7 -19 -25z m30 5 c0 -5 -4 -10 -10 -10 -5 0 -10 5 -10 10 0 6 5 10
10 10 6 0 10 -4 10 -10z"/>
<path d="M718 205 c7 -39 42 -26 42 16 0 16 -18 10 -23 -8 -4 -17 -5 -17 -6 0
0 9 -5 17 -10 17 -4 0 -6 -11 -3 -25z"/>
<path d="M772 208 c2 -12 8 -23 14 -25 7 -2 10 6 7 22 -6 30 -26 34 -21 3z"/>
<path d="M800 211 c0 -11 5 -23 10 -26 6 -4 10 5 10 19 0 14 -4 26 -10 26 -5
0 -10 -9 -10 -19z"/>
<path d="M838 218 c-3 -7 -3 -19 -1 -25 5 -15 43 -17 43 -3 0 6 -7 10 -15 10
-8 0 -15 5 -15 11 0 6 7 9 15 5 8 -3 15 -1 15 4 0 15 -37 12 -42 -2z"/>
<path d="M926 221 c-10 -16 6 -42 23 -39 9 2 17 13 19 26 3 16 -2 22 -17 22
-11 0 -22 -4 -25 -9z m34 -10 c0 -6 -4 -13 -10 -16 -5 -3 -10 1 -10 9 0 9 5
16 10 16 6 0 10 -4 10 -9z"/>
<path d="M982 208 c2 -17 11 -24 31 -26 29 -4 31 1 17 33 -7 17 -9 17 -9 3 -1
-22 -21 -24 -21 -3 0 8 -5 15 -11 15 -6 0 -9 -10 -7 -22z"/>
<path d="M370 170 c0 -5 5 -10 10 -10 6 0 10 5 10 10 0 6 -4 10 -10 10 -5 0
-10 -4 -10 -10z"/>
</g>
</svg>
